<mxfile host="65bd71144e">
    <diagram name="Page-1" id="uVApmaPjzZhsXhgRBKTE">
        <mxGraphModel dx="789" dy="543" grid="0" gridSize="10" guides="1" tooltips="1" connect="1" arrows="1" fold="1" page="1" pageScale="1" pageWidth="827" pageHeight="1169" math="0" shadow="0">
            <root>
                <mxCell id="0"/>
                <mxCell id="1" parent="0"/>
                <mxCell id="ya3n5F7Co5tdoJT3sJoZ-3" value="Client" style="rounded=0;whiteSpace=wrap;html=1;" parent="1" vertex="1">
                    <mxGeometry x="80" y="80" width="80" height="440" as="geometry"/>
                </mxCell>
                <mxCell id="ya3n5F7Co5tdoJT3sJoZ-4" value="Server" style="rounded=0;whiteSpace=wrap;html=1;" parent="1" vertex="1">
                    <mxGeometry x="240" y="80" width="80" height="440" as="geometry"/>
                </mxCell>
                <mxCell id="ya3n5F7Co5tdoJT3sJoZ-5" value="Google" style="rounded=0;whiteSpace=wrap;html=1;" parent="1" vertex="1">
                    <mxGeometry x="400" y="80" width="80" height="440" as="geometry"/>
                </mxCell>
                <mxCell id="ya3n5F7Co5tdoJT3sJoZ-6" value="Entra ID&lt;br&gt;(Azure AD)" style="rounded=0;whiteSpace=wrap;html=1;" parent="1" vertex="1">
                    <mxGeometry x="560" y="80" width="80" height="440" as="geometry"/>
                </mxCell>
                <mxCell id="ya3n5F7Co5tdoJT3sJoZ-7" value="" style="shape=flexArrow;endArrow=classic;html=1;rounded=0;fillColor=default;" parent="1" edge="1">
                    <mxGeometry width="50" height="50" relative="1" as="geometry">
                        <mxPoint x="160" y="100" as="sourcePoint"/>
                        <mxPoint x="240" y="100" as="targetPoint"/>
                    </mxGeometry>
                </mxCell>
                <mxCell id="ya3n5F7Co5tdoJT3sJoZ-9" value="" style="shape=flexArrow;endArrow=classic;html=1;rounded=0;fillColor=default;" parent="1" edge="1">
                    <mxGeometry width="50" height="50" relative="1" as="geometry">
                        <mxPoint x="240" y="140" as="sourcePoint"/>
                        <mxPoint x="160" y="140" as="targetPoint"/>
                    </mxGeometry>
                </mxCell>
                <mxCell id="ya3n5F7Co5tdoJT3sJoZ-10" value="&lt;font style=&quot;font-size: 6px;&quot;&gt;Redirect to Google&lt;/font&gt;" style="text;strokeColor=none;fillColor=none;align=left;verticalAlign=middle;spacingLeft=4;spacingRight=4;overflow=hidden;points=[[0,0.5],[1,0.5]];portConstraint=eastwest;rotatable=0;whiteSpace=wrap;html=1;" parent="1" vertex="1">
                    <mxGeometry x="180" y="110" width="80" height="30" as="geometry"/>
                </mxCell>
                <mxCell id="ya3n5F7Co5tdoJT3sJoZ-13" value="&lt;font style=&quot;font-size: 6px;&quot;&gt;Request&amp;nbsp;&lt;/font&gt;" style="text;strokeColor=none;fillColor=none;align=left;verticalAlign=middle;spacingLeft=4;spacingRight=4;overflow=hidden;points=[[0,0.5],[1,0.5]];portConstraint=eastwest;rotatable=0;whiteSpace=wrap;html=1;" parent="1" vertex="1">
                    <mxGeometry x="160" y="70" width="80" height="30" as="geometry"/>
                </mxCell>
                <mxCell id="ya3n5F7Co5tdoJT3sJoZ-14" value="" style="shape=flexArrow;endArrow=classic;html=1;rounded=0;fillColor=default;" parent="1" edge="1">
                    <mxGeometry width="50" height="50" relative="1" as="geometry">
                        <mxPoint x="160" y="180" as="sourcePoint"/>
                        <mxPoint x="400" y="180" as="targetPoint"/>
                    </mxGeometry>
                </mxCell>
                <mxCell id="ya3n5F7Co5tdoJT3sJoZ-15" value="&lt;font style=&quot;font-size: 6px;&quot;&gt;Google Sign In (with Email)&lt;/font&gt;" style="text;strokeColor=none;fillColor=none;align=left;verticalAlign=middle;spacingLeft=4;spacingRight=4;overflow=hidden;points=[[0,0.5],[1,0.5]];portConstraint=eastwest;rotatable=0;whiteSpace=wrap;html=1;" parent="1" vertex="1">
                    <mxGeometry x="160" y="150" width="90" height="30" as="geometry"/>
                </mxCell>
                <mxCell id="ya3n5F7Co5tdoJT3sJoZ-16" value="" style="shape=flexArrow;endArrow=classic;html=1;rounded=0;fillColor=default;" parent="1" edge="1">
                    <mxGeometry width="50" height="50" relative="1" as="geometry">
                        <mxPoint x="400" y="220" as="sourcePoint"/>
                        <mxPoint x="160" y="220" as="targetPoint"/>
                    </mxGeometry>
                </mxCell>
                <mxCell id="ya3n5F7Co5tdoJT3sJoZ-17" value="&lt;font style=&quot;font-size: 6px;&quot;&gt;Redirect to MS Sign In&lt;/font&gt;" style="text;strokeColor=none;fillColor=none;align=left;verticalAlign=middle;spacingLeft=4;spacingRight=4;overflow=hidden;points=[[0,0.5],[1,0.5]];portConstraint=eastwest;rotatable=0;whiteSpace=wrap;html=1;" parent="1" vertex="1">
                    <mxGeometry x="320" y="190" width="90" height="30" as="geometry"/>
                </mxCell>
                <mxCell id="ya3n5F7Co5tdoJT3sJoZ-19" value="" style="shape=flexArrow;endArrow=classic;html=1;rounded=0;fillColor=default;" parent="1" edge="1">
                    <mxGeometry width="50" height="50" relative="1" as="geometry">
                        <mxPoint x="160" y="260" as="sourcePoint"/>
                        <mxPoint x="560" y="260" as="targetPoint"/>
                    </mxGeometry>
                </mxCell>
                <mxCell id="ya3n5F7Co5tdoJT3sJoZ-20" value="&lt;font style=&quot;font-size: 6px;&quot;&gt;MS&amp;nbsp; Sign In&lt;/font&gt;" style="text;strokeColor=none;fillColor=none;align=left;verticalAlign=middle;spacingLeft=4;spacingRight=4;overflow=hidden;points=[[0,0.5],[1,0.5]];portConstraint=eastwest;rotatable=0;whiteSpace=wrap;html=1;" parent="1" vertex="1">
                    <mxGeometry x="160" y="230" width="90" height="30" as="geometry"/>
                </mxCell>
                <mxCell id="ya3n5F7Co5tdoJT3sJoZ-21" value="" style="shape=flexArrow;endArrow=classic;html=1;rounded=0;fillColor=default;" parent="1" edge="1">
                    <mxGeometry width="50" height="50" relative="1" as="geometry">
                        <mxPoint x="560" y="340.00000000000006" as="sourcePoint"/>
                        <mxPoint x="160" y="340.00000000000006" as="targetPoint"/>
                    </mxGeometry>
                </mxCell>
                <mxCell id="ya3n5F7Co5tdoJT3sJoZ-23" value="&lt;font style=&quot;font-size: 6px;&quot;&gt;Redirect back to Google&lt;/font&gt;" style="text;strokeColor=none;fillColor=none;align=left;verticalAlign=middle;spacingLeft=4;spacingRight=4;overflow=hidden;points=[[0,0.5],[1,0.5]];portConstraint=eastwest;rotatable=0;whiteSpace=wrap;html=1;" parent="1" vertex="1">
                    <mxGeometry x="480" y="310" width="90" height="30" as="geometry"/>
                </mxCell>
                <mxCell id="ya3n5F7Co5tdoJT3sJoZ-24" value="" style="shape=flexArrow;endArrow=classic;html=1;rounded=0;fillColor=default;" parent="1" edge="1">
                    <mxGeometry width="50" height="50" relative="1" as="geometry">
                        <mxPoint x="160" y="380" as="sourcePoint"/>
                        <mxPoint x="400" y="380" as="targetPoint"/>
                    </mxGeometry>
                </mxCell>
                <mxCell id="ya3n5F7Co5tdoJT3sJoZ-25" value="&lt;font style=&quot;font-size: 6px;&quot;&gt;Get OAuth Token&lt;/font&gt;" style="text;strokeColor=none;fillColor=none;align=left;verticalAlign=middle;spacingLeft=4;spacingRight=4;overflow=hidden;points=[[0,0.5],[1,0.5]];portConstraint=eastwest;rotatable=0;whiteSpace=wrap;html=1;" parent="1" vertex="1">
                    <mxGeometry x="160" y="350" width="90" height="30" as="geometry"/>
                </mxCell>
                <mxCell id="ya3n5F7Co5tdoJT3sJoZ-26" value="" style="shape=flexArrow;endArrow=classic;html=1;rounded=0;fillColor=default;" parent="1" edge="1">
                    <mxGeometry width="50" height="50" relative="1" as="geometry">
                        <mxPoint x="400" y="420" as="sourcePoint"/>
                        <mxPoint x="160" y="420" as="targetPoint"/>
                    </mxGeometry>
                </mxCell>
                <mxCell id="ya3n5F7Co5tdoJT3sJoZ-27" value="&lt;font style=&quot;font-size: 6px;&quot;&gt;OAuth Token Returned&lt;/font&gt;" style="text;strokeColor=none;fillColor=none;align=left;verticalAlign=middle;spacingLeft=4;spacingRight=4;overflow=hidden;points=[[0,0.5],[1,0.5]];portConstraint=eastwest;rotatable=0;whiteSpace=wrap;html=1;" parent="1" vertex="1">
                    <mxGeometry x="324" y="390" width="90" height="30" as="geometry"/>
                </mxCell>
                <mxCell id="ya3n5F7Co5tdoJT3sJoZ-28" value="" style="shape=flexArrow;endArrow=classic;html=1;rounded=0;fillColor=default;" parent="1" edge="1">
                    <mxGeometry width="50" height="50" relative="1" as="geometry">
                        <mxPoint x="160" y="460" as="sourcePoint"/>
                        <mxPoint x="240" y="460" as="targetPoint"/>
                    </mxGeometry>
                </mxCell>
                <mxCell id="ya3n5F7Co5tdoJT3sJoZ-29" value="&lt;font style=&quot;font-size: 8px;&quot;&gt;Token passed back to server for use in Drive API Calls&lt;/font&gt;" style="text;html=1;strokeColor=none;fillColor=none;align=center;verticalAlign=middle;whiteSpace=wrap;rounded=0;" parent="1" vertex="1">
                    <mxGeometry x="160" y="480" width="80" height="40" as="geometry"/>
                </mxCell>
                <mxCell id="2" value="Current best flow for obtaining OAuth2 token for calling Google APIs.&amp;nbsp;" style="text;html=1;strokeColor=none;fillColor=none;align=left;verticalAlign=top;whiteSpace=wrap;rounded=0;" vertex="1" parent="1">
                    <mxGeometry x="80" y="50" width="560" height="30" as="geometry"/>
                </mxCell>
            </root>
        </mxGraphModel>
    </diagram>
</mxfile>